<?xml version="1.0" encoding="UTF-8"?>
<svg id="Endless_Greens" xmlns="http://www.w3.org/2000/svg" version="1.1" viewBox="340 435 650 100" width="112" height="28">
  <!-- Generator: Adobe Illustrator 29.0.0, SVG Export Plug-In . SVG Version: 2.1.0 Build 186)  -->
  <defs>
    <style>
      .st0 {
        fill: #000000;
      }
    </style>
  </defs>
  <g>
    <path class="st0" d="M354.21,441.13h63.87v14.29h-46.5v21.49h41.76v14.23h-41.76v21.93h47.92v14.29h-65.28v-86.22Z"/>
    <polygon class="st0" points="495.8 441.13 495.8 500.56 452.01 441.13 435.81 441.13 435.81 527.36 452.63 527.36 452.63 468.2 496.17 527.36 512.37 527.36 512.37 441.13 495.8 441.13"/>
    <path class="st0" d="M569.03,441.13c6.61,0,12.68,1.07,18.2,3.2,5.52,2.13,10.27,5.11,14.26,8.93,3.98,3.82,7.08,8.36,9.3,13.61,2.22,5.26,3.33,11.05,3.33,17.37s-1.12,12.01-3.36,17.31c-2.24,5.3-5.37,9.85-9.39,13.67-4.02,3.82-8.83,6.8-14.41,8.93-5.58,2.14-11.72,3.2-18.41,3.2h-35.47v-86.22h35.97ZM569.52,513.01c3.86,0,7.44-.7,10.75-2.09,3.3-1.4,6.16-3.37,8.56-5.91,2.4-2.55,4.29-5.56,5.67-9.05,1.38-3.49,2.06-7.35,2.06-11.58s-.71-8.11-2.12-11.64c-1.42-3.53-3.37-6.57-5.85-9.11-2.49-2.55-5.42-4.53-8.81-5.94-3.39-1.42-7.07-2.12-11.06-2.12h-18.29v57.46h19.09Z"/>
    <path class="st0" d="M628.09,441.13h17.37v71.5h37.01v14.72h-54.38v-86.22Z"/>
    <path class="st0" d="M695.1,441.13h63.87v14.29h-46.5v21.49h41.76v14.23h-41.76v21.93h47.92v14.29h-65.28v-86.22Z"/>
    <path class="st0" d="M831.58,463.06c-1.89-1.15-3.91-2.24-6.07-3.26-2.15-1.03-4.36-1.91-6.62-2.65-2.26-.74-4.53-1.32-6.8-1.76-2.28-.43-4.49-.65-6.62-.65-1.36,0-2.76.12-4.22.37-1.46.25-2.79.7-4,1.35-1.21.66-2.19,1.53-2.92,2.62s-1.11,2.45-1.11,4.1c0,2.26.66,4.12,1.97,5.57,1.31,1.46,3.05,2.71,5.2,3.76s4.61,1.98,7.36,2.8c2.75.82,5.57,1.69,8.47,2.62s5.72,2,8.47,3.23,5.2,2.79,7.36,4.68c2.15,1.89,3.9,4.2,5.23,6.93,1.33,2.73,2,6.05,2,9.95,0,4.52-.98,8.4-2.93,11.64-1.95,3.24-4.5,5.9-7.64,7.98-3.14,2.07-6.7,3.59-10.68,4.56-3.98.96-7.99,1.45-12.01,1.45-3.37,0-6.71-.31-10.04-.92-3.33-.62-6.56-1.51-9.7-2.68-3.14-1.17-6.16-2.62-9.05-4.34-2.89-1.72-5.57-3.67-8.04-5.85l7.14-13.86c1.97,1.77,4.15,3.44,6.53,5.02,2.38,1.58,4.88,2.95,7.48,4.1,2.61,1.15,5.27,2.06,7.98,2.74,2.71.68,5.36,1.02,7.95,1.02,1.64,0,3.3-.16,4.99-.49,1.68-.33,3.21-.87,4.59-1.63,1.38-.76,2.5-1.78,3.39-3.05.88-1.27,1.32-2.85,1.32-4.74,0-2.3-.67-4.2-2-5.7-1.33-1.5-3.08-2.77-5.24-3.82-2.15-1.05-4.62-1.96-7.39-2.74-2.77-.78-5.6-1.62-8.5-2.53-2.89-.9-5.73-1.95-8.5-3.14-2.77-1.19-5.24-2.7-7.39-4.53-2.16-1.83-3.89-4.09-5.2-6.77-1.31-2.69-1.97-5.96-1.97-9.82,0-4.31.92-8.04,2.77-11.18,1.85-3.14,4.29-5.72,7.33-7.73s6.51-3.5,10.41-4.47c3.9-.96,7.9-1.45,12.01-1.45,2.75,0,5.53.21,8.34.62,2.81.41,5.56,1.01,8.25,1.79s5.31,1.75,7.85,2.89c2.55,1.15,4.93,2.44,7.14,3.88l-6.9,14.1Z"/>
    <path class="st0" d="M909.18,463.06c-1.89-1.15-3.91-2.24-6.07-3.26-2.15-1.03-4.36-1.91-6.62-2.65-2.26-.74-4.53-1.32-6.8-1.76-2.28-.43-4.49-.65-6.62-.65-1.36,0-2.76.12-4.22.37-1.46.25-2.79.7-4,1.35-1.21.66-2.19,1.53-2.92,2.62s-1.11,2.45-1.11,4.1c0,2.26.66,4.12,1.97,5.57,1.31,1.46,3.05,2.71,5.2,3.76s4.61,1.98,7.36,2.8c2.75.82,5.57,1.69,8.47,2.62,2.89.92,5.72,2,8.47,3.23s5.2,2.79,7.36,4.68c2.15,1.89,3.9,4.2,5.23,6.93,1.33,2.73,2,6.05,2,9.95,0,4.52-.98,8.4-2.93,11.64-1.95,3.24-4.5,5.9-7.64,7.98-3.14,2.07-6.7,3.59-10.68,4.56-3.98.96-7.99,1.45-12.01,1.45-3.37,0-6.71-.31-10.04-.92-3.33-.62-6.56-1.51-9.7-2.68-3.14-1.17-6.16-2.62-9.05-4.34-2.89-1.72-5.57-3.67-8.04-5.85l7.14-13.86c1.97,1.77,4.15,3.44,6.53,5.02,2.38,1.58,4.88,2.95,7.48,4.1,2.61,1.15,5.27,2.06,7.98,2.74,2.71.68,5.36,1.02,7.95,1.02,1.64,0,3.3-.16,4.99-.49,1.68-.33,3.21-.87,4.59-1.63,1.38-.76,2.5-1.78,3.39-3.05.88-1.27,1.32-2.85,1.32-4.74,0-2.3-.67-4.2-2-5.7-1.33-1.5-3.08-2.77-5.24-3.82-2.15-1.05-4.62-1.96-7.39-2.74-2.77-.78-5.6-1.62-8.5-2.53-2.89-.9-5.73-1.95-8.5-3.14-2.77-1.19-5.24-2.7-7.39-4.53-2.16-1.83-3.89-4.09-5.2-6.77-1.31-2.69-1.97-5.96-1.97-9.82,0-4.31.92-8.04,2.77-11.18,1.85-3.14,4.29-5.72,7.33-7.73s6.51-3.5,10.41-4.47c3.9-.96,7.9-1.45,12.01-1.45,2.75,0,5.53.21,8.34.62,2.81.41,5.56,1.01,8.25,1.79s5.31,1.75,7.85,2.89c2.55,1.15,4.93,2.44,7.14,3.88l-6.9,14.1Z"/>
  </g>
  <g>
    <path class="st0" d="M374.68,581h18.97v15.24c-.65.49-1.31.95-2.01,1.37-1.18.71-2.42,1.32-3.71,1.82-1.3.5-2.63.88-4.01,1.14-1.38.26-2.75.38-4.13.38-3.01,0-5.85-.56-8.51-1.7-2.66-1.13-4.98-2.68-6.95-4.64-1.97-1.96-3.53-4.26-4.67-6.9-1.14-2.64-1.72-5.45-1.72-8.44s.57-5.76,1.7-8.38c1.13-2.63,2.69-4.91,4.67-6.86,1.98-1.95,4.3-3.48,6.95-4.6,2.65-1.12,5.48-1.68,8.49-1.68,1.45,0,2.86.13,4.25.39,1.39.26,2.74.64,4.04,1.14,1.31.5,2.55,1.12,3.73,1.84,1.18.72,2.27,1.55,3.27,2.49l2.17-2.49c-1.14-1.03-2.39-1.94-3.73-2.75-1.34-.81-2.75-1.49-4.24-2.06-1.48-.57-3.02-1.01-4.62-1.31-1.6-.3-3.23-.45-4.88-.45-3.55,0-6.87.65-9.96,1.94-3.09,1.29-5.79,3.06-8.09,5.3-2.3,2.24-4.12,4.86-5.46,7.86-1.34,3-2.01,6.21-2.01,9.64s.66,6.66,2,9.68c1.33,3.02,3.14,5.67,5.43,7.93,2.29,2.26,4.97,4.04,8.05,5.34,3.08,1.29,6.37,1.94,9.87,1.94,1.63,0,3.26-.15,4.87-.44,1.61-.29,3.16-.72,4.66-1.28,1.49-.56,2.92-1.24,4.29-2.03,1.37-.79,2.63-1.69,3.8-2.7v-20.02h-22.51v3.29Z"/>
    <path class="st0" d="M463.27,603.86l-12.15-17.09c.3-.08.61-.15.89-.24,2.37-.75,4.36-1.83,5.99-3.24,1.62-1.41,2.86-3.15,3.71-5.22.85-2.06,1.28-4.42,1.28-7.05s-.43-4.85-1.3-6.86c-.86-2.01-2.11-3.7-3.73-5.08-1.62-1.38-3.61-2.43-5.97-3.15-2.36-.72-5.05-1.09-8.09-1.09h-17.71v49.01h3.68v-16.21h14.04c1.33,0,2.58-.08,3.79-.23l11.27,16.44h4.31ZM429.88,584.36v-26.22h14.04c2.47,0,4.67.28,6.6.84,1.92.56,3.55,1.39,4.87,2.49,1.32,1.1,2.32,2.45,3.01,4.06.69,1.61,1.03,3.47,1.03,5.57s-.34,4.04-1.03,5.69c-.69,1.65-1.69,3.03-3.01,4.15-1.32,1.12-2.94,1.97-4.87,2.56-1.93.58-4.13.88-6.6.88h-14.04Z"/>
    <path class="st0" d="M490.82,554.85h32.1v3.29h-28.42v19.04h25.34v3.26h-25.34v20.13h29.37v3.29h-33.05v-49.01Z"/>
    <path class="st0" d="M550.22,554.85h32.1v3.29h-28.42v19.04h25.34v3.26h-25.34v20.13h29.37v3.29h-33.05v-49.01Z"/>
    <path class="st0" d="M609.63,554.85h4.1l32.76,45.02-.95.31v-45.33h3.64v49.01h-4.1l-32.73-44.98.95-.35v45.33h-3.68v-49.01Z"/>
    <path class="st0" d="M705.78,561.57c-.93-.58-1.93-1.1-2.98-1.56-1.05-.45-2.14-.85-3.27-1.17s-2.27-.57-3.43-.72-2.28-.23-3.38-.23c-1.28,0-2.64.13-4.06.38-1.42.26-2.73.7-3.92,1.33-1.19.63-2.18,1.47-2.96,2.52-.78,1.05-1.17,2.37-1.17,3.96,0,1.87.4,3.4,1.21,4.6s1.87,2.21,3.2,3.03c1.33.82,2.84,1.51,4.53,2.07,1.69.56,3.43,1.11,5.22,1.66,1.78.55,3.52,1.16,5.21,1.82,1.69.66,3.2,1.52,4.53,2.56,1.33,1.04,2.4,2.32,3.22,3.85.82,1.53,1.23,3.44,1.23,5.72s-.53,4.31-1.59,5.93c-1.06,1.62-2.42,2.93-4.08,3.94-1.66,1-3.51,1.74-5.55,2.2-2.04.47-4.07.7-6.07.7-1.61,0-3.23-.16-4.85-.49-1.62-.33-3.2-.8-4.74-1.42-1.54-.62-3.01-1.38-4.41-2.29-1.4-.91-2.67-1.93-3.82-3.05l1.86-2.9c1,1.03,2.13,1.95,3.4,2.78,1.26.83,2.58,1.54,3.96,2.14,1.38.59,2.8,1.04,4.27,1.35,1.47.3,2.94.46,4.41.46s2.95-.15,4.52-.44c1.56-.29,2.99-.8,4.29-1.52,1.29-.72,2.36-1.67,3.19-2.85.83-1.18,1.24-2.64,1.24-4.39,0-1.91-.41-3.49-1.23-4.73-.82-1.24-1.89-2.27-3.22-3.11-1.33-.84-2.84-1.55-4.53-2.12-1.69-.57-3.43-1.13-5.22-1.66-1.79-.54-3.52-1.13-5.22-1.79-1.69-.65-3.2-1.48-4.53-2.49-1.33-1-2.4-2.26-3.22-3.76-.82-1.5-1.22-3.38-1.22-5.62s.51-4.04,1.52-5.53,2.32-2.71,3.9-3.64c1.59-.93,3.35-1.6,5.29-2.01,1.94-.41,3.82-.61,5.64-.61,1.24,0,2.5.09,3.78.26,1.28.17,2.54.43,3.78.77s2.44.76,3.61,1.26c1.17.5,2.26,1.09,3.29,1.77l-1.61,3.05Z"/>
  </g>
  <g>
    <path class="st0" d="M287.42,520.98v20.96h.03v-20.96h-.03Z"/>
    <path class="st0" d="M331.57,538.19v5.52c0,11.76-7.24,21.82-17.51,25.98-.65.26-1.32.38-1.97.38-2.84,0-5.38-2.35-5.38-5.43,0-2.2,1.33-4.17,3.37-5,6.27-2.57,10.68-8.74,10.68-15.93v-5.52c0-9.51-7.7-17.21-17.2-17.21h-5.29v23.42c0,32.84-26.62,59.46-59.46,59.46h-11.71c-32.84,0-59.46-26.62-59.46-59.46v-34.23h50.9v10.81h-40.09v23.42c0,26.83,21.82,48.65,48.65,48.65h11.71c26.83,0,48.65-21.82,48.65-48.65v-23.42h-36.49v-10.81h52.59c15.47,0,28.02,12.54,28.02,28.02Z"/>
    <path class="st0" d="M303.42,441.13v.49c0,12.9-3.99,24.89-10.81,34.79-9.47,13.76-24.4,23.51-41.65,26.05v-10.96c20.29-3.66,36.43-19.45,40.59-39.57h-16.74c-13.38,0-25.57,5.21-34.66,13.73v89.32c0,1.49-.6,2.84-1.58,3.83-.98.98-2.33,1.58-3.83,1.58-2.98,0-5.41-2.42-5.41-5.41v-93.74c3.22-3.54,6.85-6.7,10.81-9.41,9.87-6.77,21.81-10.72,34.66-10.72h28.62Z"/>
  </g>
</svg>