<?xml version="1.0" encoding="UTF-8"?>
<svg xmlns="http://www.w3.org/2000/svg" xmlns:xlink="http://www.w3.org/1999/xlink" width="220px" height="52px" viewBox="18 49 88 21" version="1.1">
<g id="surface1">
<path style=" stroke:none;fill-rule:nonzero;fill:rgb(0%,0%,0%);fill-opacity:1;" d="M 40.339844 50.238281 L 47.613281 50.238281 L 47.613281 51.867188 L 42.320312 51.867188 L 42.320312 54.316406 L 47.074219 54.316406 L 47.074219 55.933594 L 42.320312 55.933594 L 42.320312 58.433594 L 47.777344 58.433594 L 47.777344 60.058594 L 40.339844 60.058594 Z M 40.339844 50.238281 "/>
<path style=" stroke:none;fill-rule:nonzero;fill:rgb(0%,0%,0%);fill-opacity:1;" d="M 56.464844 50.238281 L 56.464844 57.007812 L 51.480469 50.238281 L 49.632812 50.238281 L 49.632812 60.058594 L 51.550781 60.058594 L 51.550781 53.324219 L 56.507812 60.058594 L 58.351562 60.058594 L 58.351562 50.238281 Z M 56.464844 50.238281 "/>
<path style=" stroke:none;fill-rule:nonzero;fill:rgb(0%,0%,0%);fill-opacity:1;" d="M 64.804688 50.238281 C 65.558594 50.238281 66.25 50.363281 66.878906 50.605469 C 67.507812 50.847656 68.046875 51.1875 68.503906 51.621094 C 68.957031 52.054688 69.308594 52.574219 69.5625 53.171875 C 69.816406 53.769531 69.941406 54.429688 69.941406 55.148438 C 69.941406 55.871094 69.8125 56.515625 69.558594 57.121094 C 69.304688 57.722656 68.945312 58.242188 68.488281 58.679688 C 68.03125 59.113281 67.484375 59.453125 66.847656 59.695312 C 66.210938 59.9375 65.511719 60.058594 64.75 60.058594 L 60.710938 60.058594 L 60.710938 50.238281 L 64.808594 50.238281 Z M 64.863281 58.425781 C 65.300781 58.425781 65.710938 58.347656 66.085938 58.1875 C 66.460938 58.027344 66.789062 57.804688 67.0625 57.515625 C 67.335938 57.226562 67.550781 56.882812 67.707031 56.484375 C 67.863281 56.085938 67.941406 55.648438 67.941406 55.164062 C 67.941406 54.683594 67.859375 54.242188 67.699219 53.839844 C 67.539062 53.4375 67.316406 53.089844 67.035156 52.800781 C 66.75 52.511719 66.417969 52.285156 66.03125 52.125 C 65.644531 51.964844 65.226562 51.882812 64.769531 51.882812 L 62.6875 51.882812 L 62.6875 58.429688 L 64.863281 58.429688 Z M 64.863281 58.425781 "/>
<path style=" stroke:none;fill-rule:nonzero;fill:rgb(0%,0%,0%);fill-opacity:1;" d="M 71.53125 50.238281 L 73.511719 50.238281 L 73.511719 58.382812 L 77.726562 58.382812 L 77.726562 60.058594 L 71.53125 60.058594 Z M 71.53125 50.238281 "/>
<path style=" stroke:none;fill-rule:nonzero;fill:rgb(0%,0%,0%);fill-opacity:1;" d="M 79.164062 50.238281 L 86.4375 50.238281 L 86.4375 51.867188 L 81.140625 51.867188 L 81.140625 54.316406 L 85.898438 54.316406 L 85.898438 55.933594 L 81.140625 55.933594 L 81.140625 58.433594 L 86.601562 58.433594 L 86.601562 60.058594 L 79.164062 60.058594 Z M 79.164062 50.238281 "/>
<path style=" stroke:none;fill-rule:nonzero;fill:rgb(0%,0%,0%);fill-opacity:1;" d="M 94.707031 52.738281 C 94.492188 52.605469 94.261719 52.480469 94.015625 52.367188 C 93.773438 52.25 93.519531 52.148438 93.261719 52.0625 C 93.003906 51.980469 92.746094 51.914062 92.488281 51.863281 C 92.226562 51.816406 91.976562 51.789062 91.734375 51.789062 C 91.578125 51.789062 91.417969 51.804688 91.253906 51.832031 C 91.085938 51.859375 90.9375 51.910156 90.796875 51.984375 C 90.660156 52.0625 90.546875 52.160156 90.464844 52.285156 C 90.382812 52.410156 90.339844 52.5625 90.339844 52.75 C 90.339844 53.007812 90.414062 53.21875 90.5625 53.386719 C 90.710938 53.550781 90.910156 53.695312 91.15625 53.8125 C 91.398438 53.933594 91.679688 54.039062 91.992188 54.132812 C 92.308594 54.226562 92.628906 54.324219 92.957031 54.429688 C 93.289062 54.535156 93.609375 54.660156 93.921875 54.796875 C 94.234375 54.9375 94.515625 55.117188 94.761719 55.332031 C 95.007812 55.546875 95.207031 55.808594 95.355469 56.121094 C 95.507812 56.433594 95.585938 56.808594 95.585938 57.253906 C 95.585938 57.769531 95.472656 58.210938 95.25 58.578125 C 95.027344 58.949219 94.738281 59.25 94.382812 59.488281 C 94.023438 59.722656 93.617188 59.898438 93.164062 60.007812 C 92.710938 60.117188 92.253906 60.171875 91.796875 60.171875 C 91.414062 60.171875 91.03125 60.136719 90.652344 60.070312 C 90.273438 59.996094 89.90625 59.894531 89.546875 59.761719 C 89.191406 59.628906 88.847656 59.464844 88.519531 59.269531 C 88.1875 59.074219 87.882812 58.851562 87.601562 58.601562 L 88.414062 57.023438 C 88.640625 57.226562 88.886719 57.414062 89.160156 57.597656 C 89.429688 57.777344 89.714844 57.933594 90.011719 58.0625 C 90.308594 58.195312 90.609375 58.296875 90.917969 58.375 C 91.226562 58.453125 91.53125 58.492188 91.824219 58.492188 C 92.011719 58.492188 92.199219 58.472656 92.394531 58.433594 C 92.585938 58.398438 92.757812 58.335938 92.917969 58.25 C 93.074219 58.164062 93.199219 58.046875 93.300781 57.902344 C 93.402344 57.757812 93.453125 57.578125 93.453125 57.363281 C 93.453125 57.101562 93.375 56.882812 93.226562 56.714844 C 93.074219 56.542969 92.875 56.398438 92.628906 56.277344 C 92.382812 56.160156 92.101562 56.054688 91.785156 55.964844 C 91.472656 55.878906 91.148438 55.78125 90.820312 55.679688 C 90.488281 55.574219 90.164062 55.457031 89.851562 55.320312 C 89.535156 55.183594 89.253906 55.011719 89.007812 54.804688 C 88.761719 54.597656 88.566406 54.339844 88.417969 54.035156 C 88.265625 53.726562 88.191406 53.355469 88.191406 52.914062 C 88.191406 52.425781 88.296875 52 88.507812 51.640625 C 88.71875 51.285156 88.996094 50.992188 89.34375 50.761719 C 89.6875 50.53125 90.082031 50.363281 90.527344 50.253906 C 90.972656 50.144531 91.425781 50.085938 91.894531 50.085938 C 92.210938 50.085938 92.527344 50.109375 92.84375 50.15625 C 93.164062 50.203125 93.480469 50.273438 93.785156 50.363281 C 94.089844 50.449219 94.390625 50.5625 94.679688 50.691406 C 94.96875 50.820312 95.242188 50.96875 95.492188 51.132812 Z M 94.707031 52.738281 "/>
<path style=" stroke:none;fill-rule:nonzero;fill:rgb(0%,0%,0%);fill-opacity:1;" d="M 103.546875 52.738281 C 103.332031 52.605469 103.101562 52.480469 102.855469 52.367188 C 102.609375 52.25 102.359375 52.148438 102.101562 52.0625 C 101.84375 51.980469 101.585938 51.914062 101.324219 51.863281 C 101.066406 51.816406 100.8125 51.789062 100.570312 51.789062 C 100.417969 51.789062 100.257812 51.804688 100.089844 51.832031 C 99.925781 51.859375 99.773438 51.910156 99.636719 51.984375 C 99.496094 52.0625 99.386719 52.160156 99.304688 52.285156 C 99.21875 52.410156 99.175781 52.5625 99.175781 52.75 C 99.175781 53.007812 99.25 53.21875 99.402344 53.386719 C 99.550781 53.550781 99.75 53.695312 99.992188 53.8125 C 100.238281 53.933594 100.519531 54.039062 100.832031 54.132812 C 101.144531 54.226562 101.464844 54.324219 101.796875 54.429688 C 102.125 54.535156 102.449219 54.660156 102.761719 54.796875 C 103.074219 54.9375 103.351562 55.117188 103.597656 55.332031 C 103.84375 55.546875 104.042969 55.808594 104.195312 56.121094 C 104.347656 56.433594 104.421875 56.808594 104.421875 57.253906 C 104.421875 57.769531 104.3125 58.210938 104.089844 58.578125 C 103.867188 58.949219 103.578125 59.25 103.21875 59.488281 C 102.859375 59.722656 102.457031 59.898438 102.003906 60.007812 C 101.550781 60.117188 101.09375 60.171875 100.632812 60.171875 C 100.25 60.171875 99.871094 60.136719 99.492188 60.070312 C 99.113281 59.996094 98.742188 59.894531 98.386719 59.761719 C 98.027344 59.628906 97.683594 59.464844 97.355469 59.269531 C 97.027344 59.074219 96.722656 58.851562 96.441406 58.601562 L 97.253906 57.023438 C 97.476562 57.226562 97.726562 57.414062 97.996094 57.597656 C 98.269531 57.777344 98.550781 57.933594 98.847656 58.0625 C 99.144531 58.195312 99.449219 58.296875 99.757812 58.375 C 100.066406 58.453125 100.367188 58.492188 100.664062 58.492188 C 100.851562 58.492188 101.039062 58.472656 101.230469 58.433594 C 101.421875 58.398438 101.597656 58.335938 101.753906 58.25 C 101.910156 58.164062 102.039062 58.046875 102.140625 57.902344 C 102.242188 57.757812 102.289062 57.578125 102.289062 57.363281 C 102.289062 57.101562 102.214844 56.882812 102.0625 56.714844 C 101.910156 56.542969 101.710938 56.398438 101.464844 56.277344 C 101.222656 56.160156 100.941406 56.054688 100.625 55.964844 C 100.308594 55.878906 99.988281 55.78125 99.65625 55.679688 C 99.328125 55.574219 99.003906 55.457031 98.6875 55.320312 C 98.371094 55.183594 98.089844 55.011719 97.847656 54.804688 C 97.601562 54.597656 97.402344 54.339844 97.253906 54.035156 C 97.105469 53.726562 97.03125 53.355469 97.03125 52.914062 C 97.03125 52.425781 97.132812 52 97.34375 51.640625 C 97.554688 51.285156 97.832031 50.992188 98.179688 50.761719 C 98.527344 50.53125 98.921875 50.363281 99.367188 50.253906 C 99.808594 50.144531 100.265625 50.085938 100.734375 50.085938 C 101.046875 50.085938 101.363281 50.109375 101.683594 50.15625 C 102.003906 50.203125 102.316406 50.273438 102.621094 50.363281 C 102.929688 50.449219 103.226562 50.5625 103.515625 50.691406 C 103.808594 50.820312 104.078125 50.96875 104.332031 51.132812 L 103.542969 52.738281 Z M 103.546875 52.738281 "/>
<path style=" stroke:none;fill-rule:nonzero;fill:rgb(0%,0%,0%);fill-opacity:1;" d="M 42.671875 66.167969 L 44.832031 66.167969 L 44.832031 67.90625 C 44.757812 67.960938 44.683594 68.011719 44.601562 68.0625 C 44.46875 68.140625 44.328125 68.210938 44.179688 68.269531 C 44.03125 68.324219 43.882812 68.367188 43.722656 68.398438 C 43.566406 68.429688 43.410156 68.441406 43.253906 68.441406 C 42.910156 68.441406 42.585938 68.378906 42.285156 68.246094 C 41.980469 68.121094 41.71875 67.941406 41.492188 67.71875 C 41.269531 67.496094 41.089844 67.234375 40.960938 66.933594 C 40.832031 66.632812 40.765625 66.3125 40.765625 65.972656 C 40.765625 65.632812 40.832031 65.316406 40.960938 65.019531 C 41.085938 64.71875 41.265625 64.457031 41.492188 64.238281 C 41.714844 64.015625 41.980469 63.839844 42.28125 63.710938 C 42.585938 63.585938 42.90625 63.523438 43.25 63.523438 C 43.414062 63.523438 43.574219 63.535156 43.734375 63.566406 C 43.890625 63.59375 44.046875 63.640625 44.195312 63.695312 C 44.34375 63.753906 44.484375 63.824219 44.617188 63.90625 C 44.753906 63.988281 44.875 64.082031 44.992188 64.1875 L 45.238281 63.90625 C 45.109375 63.789062 44.964844 63.683594 44.8125 63.59375 C 44.660156 63.5 44.5 63.421875 44.332031 63.359375 C 44.160156 63.292969 43.984375 63.242188 43.804688 63.207031 C 43.621094 63.175781 43.4375 63.15625 43.25 63.15625 C 42.84375 63.15625 42.464844 63.230469 42.113281 63.378906 C 41.761719 63.523438 41.453125 63.726562 41.191406 63.980469 C 40.929688 64.238281 40.722656 64.535156 40.570312 64.875 C 40.417969 65.21875 40.339844 65.585938 40.339844 65.976562 C 40.339844 66.367188 40.417969 66.734375 40.570312 67.078125 C 40.722656 67.421875 40.925781 67.722656 41.1875 67.980469 C 41.449219 68.238281 41.753906 68.441406 42.105469 68.589844 C 42.457031 68.734375 42.832031 68.808594 43.230469 68.808594 C 43.414062 68.808594 43.601562 68.792969 43.785156 68.757812 C 43.96875 68.726562 44.144531 68.675781 44.3125 68.613281 C 44.484375 68.550781 44.648438 68.472656 44.804688 68.382812 C 44.957031 68.292969 45.101562 68.191406 45.234375 68.074219 L 45.234375 65.792969 L 42.671875 65.792969 Z M 42.671875 66.167969 "/>
<path style=" stroke:none;fill-rule:nonzero;fill:rgb(0%,0%,0%);fill-opacity:1;" d="M 52.761719 68.773438 L 51.378906 66.828125 C 51.410156 66.816406 51.445312 66.808594 51.480469 66.800781 C 51.75 66.714844 51.976562 66.589844 52.160156 66.429688 C 52.34375 66.269531 52.488281 66.070312 52.582031 65.835938 C 52.679688 65.601562 52.730469 65.332031 52.730469 65.03125 C 52.730469 64.734375 52.679688 64.480469 52.582031 64.25 C 52.484375 64.023438 52.339844 63.832031 52.15625 63.671875 C 51.972656 63.515625 51.746094 63.394531 51.476562 63.3125 C 51.207031 63.230469 50.902344 63.191406 50.554688 63.191406 L 48.539062 63.191406 L 48.539062 68.773438 L 48.957031 68.773438 L 48.957031 66.925781 L 50.554688 66.925781 C 50.707031 66.925781 50.851562 66.917969 50.988281 66.898438 L 52.273438 68.773438 Z M 48.957031 66.550781 L 48.957031 63.566406 L 50.558594 63.566406 C 50.839844 63.566406 51.089844 63.597656 51.308594 63.660156 C 51.527344 63.726562 51.714844 63.820312 51.863281 63.945312 C 52.015625 64.070312 52.128906 64.222656 52.207031 64.40625 C 52.285156 64.589844 52.324219 64.804688 52.324219 65.042969 C 52.324219 65.28125 52.285156 65.503906 52.207031 65.691406 C 52.128906 65.878906 52.015625 66.035156 51.863281 66.164062 C 51.714844 66.289062 51.527344 66.386719 51.308594 66.453125 C 51.089844 66.519531 50.839844 66.554688 50.558594 66.554688 L 48.957031 66.554688 Z M 48.957031 66.550781 "/>
<path style=" stroke:none;fill-rule:nonzero;fill:rgb(0%,0%,0%);fill-opacity:1;" d="M 55.898438 63.191406 L 59.554688 63.191406 L 59.554688 63.566406 L 56.316406 63.566406 L 56.316406 65.734375 L 59.203125 65.734375 L 59.203125 66.105469 L 56.316406 66.105469 L 56.316406 68.398438 L 59.664062 68.398438 L 59.664062 68.773438 L 55.898438 68.773438 Z M 55.898438 63.191406 "/>
<path style=" stroke:none;fill-rule:nonzero;fill:rgb(0%,0%,0%);fill-opacity:1;" d="M 62.664062 63.191406 L 66.320312 63.191406 L 66.320312 63.566406 L 63.082031 63.566406 L 63.082031 65.734375 L 65.96875 65.734375 L 65.96875 66.105469 L 63.082031 66.105469 L 63.082031 68.398438 L 66.429688 68.398438 L 66.429688 68.773438 L 62.664062 68.773438 Z M 62.664062 63.191406 "/>
<path style=" stroke:none;fill-rule:nonzero;fill:rgb(0%,0%,0%);fill-opacity:1;" d="M 69.429688 63.191406 L 69.898438 63.191406 L 73.628906 68.320312 L 73.519531 68.355469 L 73.519531 63.191406 L 73.933594 63.191406 L 73.933594 68.773438 L 73.46875 68.773438 L 69.738281 63.648438 L 69.847656 63.609375 L 69.847656 68.773438 L 69.429688 68.773438 Z M 69.429688 63.191406 "/>
<path style=" stroke:none;fill-rule:nonzero;fill:rgb(0%,0%,0%);fill-opacity:1;" d="M 80.378906 63.957031 C 80.273438 63.890625 80.160156 63.832031 80.042969 63.777344 C 79.921875 63.726562 79.796875 63.683594 79.667969 63.644531 C 79.539062 63.609375 79.410156 63.582031 79.277344 63.5625 C 79.144531 63.546875 79.019531 63.539062 78.894531 63.539062 C 78.746094 63.539062 78.59375 63.550781 78.429688 63.582031 C 78.269531 63.609375 78.121094 63.660156 77.984375 63.730469 C 77.847656 63.804688 77.734375 63.898438 77.648438 64.019531 C 77.558594 64.140625 77.515625 64.289062 77.515625 64.46875 C 77.515625 64.683594 77.558594 64.859375 77.652344 64.992188 C 77.742188 65.128906 77.863281 65.246094 78.015625 65.339844 C 78.167969 65.433594 78.339844 65.511719 78.53125 65.574219 C 78.722656 65.640625 78.921875 65.703125 79.125 65.765625 C 79.328125 65.828125 79.527344 65.894531 79.71875 65.972656 C 79.914062 66.046875 80.085938 66.144531 80.234375 66.261719 C 80.386719 66.382812 80.507812 66.527344 80.601562 66.703125 C 80.695312 66.875 80.742188 67.09375 80.742188 67.351562 C 80.742188 67.613281 80.683594 67.84375 80.5625 68.027344 C 80.441406 68.210938 80.285156 68.363281 80.097656 68.476562 C 79.90625 68.589844 79.695312 68.675781 79.464844 68.726562 C 79.234375 68.78125 79 68.808594 78.773438 68.808594 C 78.589844 68.808594 78.40625 68.789062 78.222656 68.75 C 78.035156 68.714844 77.855469 68.660156 77.679688 68.589844 C 77.507812 68.519531 77.339844 68.433594 77.179688 68.328125 C 77.019531 68.226562 76.875 68.109375 76.742188 67.980469 L 76.957031 67.652344 C 77.070312 67.769531 77.199219 67.875 77.34375 67.96875 C 77.488281 68.0625 77.636719 68.144531 77.792969 68.210938 C 77.953125 68.277344 78.113281 68.328125 78.28125 68.363281 C 78.449219 68.398438 78.613281 68.417969 78.78125 68.417969 C 78.949219 68.417969 79.117188 68.402344 79.296875 68.367188 C 79.476562 68.335938 79.636719 68.277344 79.785156 68.195312 C 79.933594 68.113281 80.054688 68.003906 80.148438 67.871094 C 80.242188 67.734375 80.289062 67.570312 80.289062 67.371094 C 80.289062 67.152344 80.242188 66.972656 80.152344 66.832031 C 80.058594 66.691406 79.933594 66.574219 79.785156 66.476562 C 79.632812 66.382812 79.460938 66.300781 79.269531 66.234375 C 79.074219 66.171875 78.878906 66.105469 78.671875 66.046875 C 78.46875 65.984375 78.273438 65.917969 78.078125 65.84375 C 77.886719 65.769531 77.714844 65.675781 77.5625 65.558594 C 77.410156 65.445312 77.289062 65.300781 77.195312 65.128906 C 77.101562 64.960938 77.058594 64.746094 77.058594 64.492188 C 77.058594 64.234375 77.117188 64.03125 77.230469 63.859375 C 77.34375 63.691406 77.496094 63.550781 77.675781 63.445312 C 77.855469 63.339844 78.054688 63.265625 78.277344 63.21875 C 78.496094 63.171875 78.710938 63.148438 78.917969 63.148438 C 79.058594 63.148438 79.203125 63.160156 79.351562 63.175781 C 79.496094 63.195312 79.640625 63.226562 79.78125 63.265625 C 79.921875 63.304688 80.058594 63.351562 80.191406 63.410156 C 80.324219 63.464844 80.449219 63.53125 80.566406 63.609375 L 80.382812 63.957031 Z M 80.378906 63.957031 "/>
<path style=" stroke:none;fill-rule:nonzero;fill:rgb(0%,0%,0%);fill-opacity:1;" d="M 32.734375 59.332031 L 32.734375 61.722656 L 32.738281 61.722656 L 32.738281 59.332031 Z M 32.734375 59.332031 "/>
<path style=" stroke:none;fill-rule:nonzero;fill:rgb(0%,0%,0%);fill-opacity:1;" d="M 37.761719 61.292969 L 37.761719 61.921875 C 37.761719 63.261719 36.9375 64.40625 35.769531 64.882812 C 35.695312 64.910156 35.617188 64.925781 35.542969 64.925781 C 35.21875 64.925781 34.929688 64.65625 34.929688 64.304688 C 34.929688 64.054688 35.082031 63.832031 35.316406 63.738281 C 36.027344 63.445312 36.53125 62.742188 36.53125 61.921875 L 36.53125 61.292969 C 36.53125 60.210938 35.652344 59.332031 34.570312 59.332031 L 33.96875 59.332031 L 33.96875 62 C 33.96875 65.742188 30.9375 68.773438 27.199219 68.773438 L 25.863281 68.773438 C 22.125 68.773438 19.09375 65.742188 19.09375 62 L 19.09375 58.101562 L 24.890625 58.101562 L 24.890625 59.332031 L 20.324219 59.332031 L 20.324219 62 C 20.324219 65.058594 22.808594 67.542969 25.863281 67.542969 L 27.199219 67.542969 C 30.253906 67.542969 32.738281 65.058594 32.738281 62 L 32.738281 59.332031 L 28.582031 59.332031 L 28.582031 58.101562 L 34.570312 58.101562 C 36.332031 58.101562 37.761719 59.53125 37.761719 61.292969 Z M 37.761719 61.292969 "/>
<path style=" stroke:none;fill-rule:nonzero;fill:rgb(0%,0%,0%);fill-opacity:1;" d="M 34.554688 50.238281 L 34.554688 50.296875 C 34.554688 51.765625 34.101562 53.128906 33.324219 54.257812 C 32.246094 55.824219 30.546875 56.933594 28.582031 57.226562 L 28.582031 55.976562 C 30.890625 55.558594 32.730469 53.761719 33.203125 51.46875 L 31.296875 51.46875 C 29.773438 51.46875 28.386719 52.0625 27.351562 53.035156 L 27.351562 63.207031 C 27.351562 63.375 27.28125 63.53125 27.171875 63.640625 C 27.058594 63.753906 26.90625 63.820312 26.734375 63.820312 C 26.394531 63.820312 26.117188 63.546875 26.117188 63.207031 L 26.117188 52.53125 C 26.484375 52.125 26.898438 51.765625 27.347656 51.457031 C 28.472656 50.6875 29.832031 50.238281 31.296875 50.238281 Z M 34.554688 50.238281 "/>
</g>
</svg>
